<svg xmlns="http://www.w3.org/2000/svg" xmlns:xlink="http://www.w3.org/1999/xlink" width="500" zoomAndPan="magnify" viewBox="0 0 375 374.999991" height="500" preserveAspectRatio="xMidYMid meet" version="1.0"><defs><g/><clipPath id="ef6f6993dd"><path d="M 109 163.835938 L 131.050781 163.835938 L 131.050781 211.242188 L 109 211.242188 Z M 109 163.835938 " clip-rule="nonzero"/></clipPath><clipPath id="337fb99118"><path d="M 122.507812 207.859375 L 153.066406 207.859375 L 153.066406 211.164062 L 122.507812 211.164062 Z M 122.507812 207.859375 " clip-rule="nonzero"/></clipPath><clipPath id="5ce60b4a25"><path d="M 140.90625 163.835938 L 163 163.835938 L 163 211.242188 L 140.90625 211.242188 Z M 140.90625 163.835938 " clip-rule="nonzero"/></clipPath></defs><rect x="-37.5" width="450" fill="#ffffff" y="-37.499999" height="449.999989" fill-opacity="1"/><rect x="-37.5" width="450" fill="#ffffff" y="-37.499999" height="449.999989" fill-opacity="1"/><rect x="-37.5" width="450" fill="#ffffff" y="-37.499999" height="449.999989" fill-opacity="1"/><g clip-path="url(#ef6f6993dd)"><path fill="#435dbe" d="M 131.304688 164.277344 C 131.128906 164.464844 130.832031 164.777344 130.644531 164.972656 C 130.457031 165.171875 130.285156 165.367188 130.265625 165.417969 C 130.21875 165.519531 130.238281 165.886719 130.304688 166.25 C 130.371094 166.621094 130.386719 166.753906 130.359375 166.753906 C 130.34375 166.753906 130.273438 166.71875 130.210938 166.671875 C 129.632812 166.277344 129.015625 166.222656 128.738281 166.546875 C 128.617188 166.679688 128.574219 166.835938 128.574219 167.113281 C 128.574219 167.472656 128.722656 167.855469 129.027344 168.277344 C 129.117188 168.398438 129.1875 168.515625 129.1875 168.53125 C 129.1875 168.589844 129.050781 168.796875 129.015625 168.796875 C 128.992188 168.796875 128.804688 168.535156 128.597656 168.21875 C 128.066406 167.414062 127.941406 167.277344 127.835938 167.40625 C 127.746094 167.523438 127.554688 168.160156 127.375 168.957031 C 127.25 169.503906 127.179688 169.675781 127.058594 169.75 C 127.03125 169.761719 126.878906 169.894531 126.71875 170.039062 C 126.289062 170.421875 126.191406 170.480469 125.996094 170.480469 C 125.902344 170.480469 125.804688 170.503906 125.761719 170.535156 C 125.675781 170.59375 125.679688 170.601562 125.496094 170.328125 C 125.25 169.960938 124.960938 169.824219 124.679688 169.945312 C 124.585938 169.980469 124.539062 170.027344 124.492188 170.136719 C 124.347656 170.46875 124.382812 170.8125 124.628906 171.375 C 124.96875 172.144531 124.996094 172.25 125.042969 172.9375 C 125.078125 173.410156 125.09375 173.488281 125.351562 174.03125 C 125.410156 174.15625 125.496094 174.390625 125.550781 174.542969 C 125.691406 174.984375 125.851562 175.113281 126.277344 175.117188 C 126.394531 175.117188 126.5 175.128906 126.511719 175.136719 C 126.519531 175.152344 126.425781 175.359375 126.300781 175.601562 C 126.039062 176.097656 125.792969 176.585938 125.699219 176.804688 C 125.664062 176.886719 125.609375 177.011719 125.578125 177.085938 C 125.546875 177.160156 125.511719 177.21875 125.496094 177.210938 C 125.484375 177.203125 125.457031 177.089844 125.433594 176.960938 C 125.34375 176.464844 125.171875 176.128906 124.808594 175.746094 C 124.566406 175.496094 124.515625 175.425781 124.503906 175.316406 C 124.488281 175.210938 124.5 175.175781 124.566406 175.105469 C 124.640625 175.035156 124.679688 175.019531 124.839844 175.019531 C 124.945312 175.019531 125.078125 175.035156 125.132812 175.050781 C 125.210938 175.074219 125.246094 175.070312 125.285156 175.035156 C 125.359375 174.957031 125.304688 174.886719 125.039062 174.738281 C 124.382812 174.371094 123.679688 174.539062 123.375 175.136719 C 123.300781 175.285156 123.289062 175.34375 123.304688 175.46875 C 123.316406 175.554688 123.335938 175.648438 123.34375 175.675781 C 123.359375 175.71875 123.335938 175.746094 123.234375 175.796875 C 123.074219 175.878906 123.035156 175.945312 123.035156 176.148438 C 123.035156 176.375 123.148438 176.566406 123.320312 176.65625 C 123.480469 176.734375 123.484375 176.757812 123.359375 177.144531 C 123.296875 177.347656 123.289062 177.4375 123.289062 178.023438 C 123.292969 178.894531 123.378906 179.429688 123.625 180.0625 C 123.761719 180.40625 123.933594 180.660156 124.242188 180.957031 L 124.492188 181.207031 L 124.492188 181.6875 C 124.492188 181.953125 124.503906 182.25 124.511719 182.339844 C 124.53125 182.496094 124.527344 182.511719 124.472656 182.511719 C 124.433594 182.511719 124.375 182.472656 124.328125 182.425781 C 124.15625 182.238281 123.695312 181.988281 123.214844 181.832031 C 122.949219 181.738281 122.9375 181.730469 122.90625 181.566406 C 122.871094 181.375 122.914062 181.300781 123.046875 181.332031 C 123.25 181.375 123.445312 181.453125 123.582031 181.546875 C 123.734375 181.644531 123.855469 181.65625 123.871094 181.566406 C 123.886719 181.496094 123.582031 181.050781 123.386719 180.859375 C 123.300781 180.777344 123.148438 180.664062 123.042969 180.613281 C 122.875 180.527344 122.828125 180.515625 122.535156 180.515625 C 122.164062 180.515625 122.03125 180.570312 121.804688 180.796875 C 121.636719 180.960938 121.554688 181.15625 121.5 181.503906 C 121.472656 181.652344 121.449219 181.777344 121.441406 181.789062 C 121.429688 181.796875 121.351562 181.851562 121.261719 181.90625 C 121.175781 181.964844 121.046875 182.082031 120.980469 182.171875 C 120.554688 182.730469 120.546875 183.292969 120.957031 183.566406 L 121.109375 183.664062 L 121.097656 184.214844 C 121.078125 185.515625 121.328125 186.304688 122.046875 187.246094 C 122.328125 187.613281 122.429688 187.730469 122.792969 188.113281 C 122.992188 188.316406 123.160156 188.503906 123.175781 188.527344 C 123.191406 188.554688 123.125 188.628906 122.953125 188.761719 C 122.480469 189.125 122.511719 189.085938 122.511719 189.335938 C 122.515625 189.675781 122.546875 190.296875 122.601562 191.046875 C 122.632812 191.414062 122.644531 191.757812 122.636719 191.800781 C 122.621094 191.859375 122.59375 191.882812 122.535156 191.882812 C 122.492188 191.882812 122.449219 191.867188 122.433594 191.84375 C 122.421875 191.824219 122.40625 191.605469 122.398438 191.355469 C 122.390625 190.902344 122.355469 190.703125 122.242188 190.484375 C 122.210938 190.421875 121.972656 190.164062 121.710938 189.90625 C 121.238281 189.441406 121.121094 189.28125 121.078125 189.054688 C 121.050781 188.902344 121.125 188.75 121.273438 188.683594 C 121.375 188.632812 121.390625 188.632812 121.558594 188.703125 C 121.65625 188.742188 121.773438 188.816406 121.824219 188.871094 C 121.925781 188.976562 121.976562 188.988281 122.035156 188.914062 C 122.070312 188.875 122.058594 188.816406 121.984375 188.597656 C 121.828125 188.140625 121.628906 187.714844 121.480469 187.523438 C 121.292969 187.285156 121.078125 187.140625 120.707031 187.011719 C 120.285156 186.871094 119.96875 186.867188 119.691406 187.003906 C 119.585938 187.054688 119.4375 187.15625 119.355469 187.226562 C 119.214844 187.351562 118.859375 187.851562 118.703125 188.152344 C 118.660156 188.234375 118.558594 188.398438 118.476562 188.527344 C 118.316406 188.765625 118.339844 188.753906 117.875 188.898438 C 117.453125 189.035156 117.285156 189.144531 117.175781 189.363281 C 117.066406 189.570312 117.082031 189.742188 117.234375 189.992188 C 117.339844 190.160156 117.363281 190.222656 117.335938 190.269531 C 117.320312 190.300781 117.28125 190.324219 117.25 190.324219 C 117.15625 190.324219 116.988281 190.457031 116.9375 190.566406 C 116.867188 190.71875 116.875 190.886719 116.96875 191.152344 C 117.066406 191.441406 117.066406 191.519531 116.960938 191.746094 C 116.894531 191.890625 116.875 191.980469 116.875 192.15625 C 116.875 192.425781 116.933594 192.597656 117.148438 192.953125 C 117.460938 193.476562 117.582031 193.875 117.695312 194.785156 C 117.78125 195.449219 117.878906 195.996094 118.035156 196.632812 C 118.117188 196.964844 118.140625 197.121094 118.121094 197.144531 C 118.097656 197.167969 118.015625 197.15625 117.867188 197.113281 C 117.554688 197.015625 117.484375 197.003906 117.253906 197.003906 C 116.808594 197.003906 116.59375 197.273438 116.691406 197.730469 C 116.722656 197.894531 116.859375 198.125 117.136719 198.492188 L 117.210938 198.589844 L 117.082031 198.746094 C 117.007812 198.839844 116.9375 198.96875 116.914062 199.066406 C 116.894531 199.15625 116.867188 199.238281 116.851562 199.257812 C 116.8125 199.300781 116.429688 199.105469 116.292969 198.964844 C 116.074219 198.746094 116.078125 198.695312 116.304688 198.636719 C 116.4375 198.601562 116.46875 198.507812 116.375 198.421875 C 116.273438 198.332031 115.949219 198.230469 115.738281 198.226562 C 115.367188 198.21875 115.085938 198.4375 115.011719 198.796875 C 114.941406 199.113281 115.050781 199.492188 115.347656 199.96875 C 115.53125 200.261719 115.570312 200.472656 115.484375 200.679688 C 115.4375 200.78125 115.417969 200.800781 115.324219 200.800781 C 115.195312 200.800781 114.984375 200.703125 114.902344 200.613281 C 114.847656 200.554688 114.847656 200.523438 114.882812 200.285156 C 114.914062 200.074219 114.914062 200.015625 114.878906 199.976562 C 114.777344 199.851562 114.386719 199.964844 114.191406 200.171875 C 113.992188 200.382812 113.851562 200.890625 113.890625 201.25 C 113.90625 201.351562 113.949219 201.605469 113.996094 201.820312 C 114.058594 202.117188 114.078125 202.308594 114.082031 202.632812 C 114.085938 203.136719 114.03125 203.3125 113.78125 203.597656 C 113.695312 203.699219 113.605469 203.835938 113.585938 203.902344 C 113.5625 203.96875 113.53125 204.039062 113.523438 204.058594 C 113.507812 204.074219 113.457031 204.199219 113.410156 204.332031 C 113.359375 204.464844 113.292969 204.640625 113.261719 204.722656 C 113.183594 204.90625 112.8125 205.878906 112.640625 206.359375 C 112.566406 206.554688 112.488281 206.773438 112.460938 206.847656 C 112.394531 207.027344 112.359375 207.0625 112.261719 207.035156 C 112.136719 207.003906 111.859375 206.820312 111.773438 206.714844 C 111.621094 206.523438 111.5625 206.242188 111.648438 206.15625 C 111.671875 206.132812 111.734375 206.117188 111.789062 206.117188 C 111.9375 206.117188 111.996094 206.089844 111.996094 206.015625 C 111.996094 205.925781 111.882812 205.871094 111.601562 205.824219 C 111.3125 205.777344 111.105469 205.800781 110.898438 205.90625 C 110.714844 205.996094 110.660156 206.058594 110.566406 206.261719 C 110.425781 206.585938 110.488281 207.042969 110.71875 207.367188 C 110.78125 207.457031 110.832031 207.539062 110.832031 207.550781 C 110.832031 207.628906 110.714844 207.542969 110.464844 207.289062 C 110.234375 207.050781 110.183594 206.984375 110.183594 206.898438 C 110.183594 206.84375 110.203125 206.773438 110.222656 206.738281 C 110.25 206.691406 110.246094 206.660156 110.203125 206.59375 C 110.09375 206.429688 109.785156 206.402344 109.5625 206.539062 C 109.4375 206.617188 109.289062 206.832031 109.257812 206.984375 C 109.207031 207.253906 109.339844 207.65625 109.539062 207.839844 C 109.636719 207.929688 109.632812 207.964844 109.535156 207.964844 C 109.429688 207.964844 109.308594 208.039062 109.257812 208.128906 C 109.199219 208.25 109.199219 208.585938 109.265625 208.738281 C 109.292969 208.8125 109.488281 209.027344 109.777344 209.3125 C 110.261719 209.785156 110.476562 210.042969 110.613281 210.316406 C 110.695312 210.480469 110.878906 210.992188 110.914062 211.148438 L 110.929688 211.242188 L 131.421875 211.242188 L 131.417969 211.117188 C 131.414062 211.050781 131.429688 209.523438 131.449219 207.722656 C 131.488281 204.136719 131.539062 198.089844 131.582031 191.445312 C 131.617188 186.917969 131.660156 181.171875 131.710938 174.828125 C 131.730469 172.710938 131.753906 169.472656 131.765625 167.628906 C 131.773438 165.785156 131.792969 164.226562 131.808594 164.175781 C 131.84375 164.035156 131.796875 163.933594 131.703125 163.933594 C 131.648438 163.933594 131.539062 164.027344 131.304688 164.277344 Z M 131.304688 164.277344 " fill-opacity="1" fill-rule="nonzero"/></g><g clip-path="url(#337fb99118)"><path fill="#435dbe" d="M 122.507812 207.859375 L 153.070312 207.859375 L 153.070312 211.222656 L 122.507812 211.222656 Z M 122.507812 207.859375 " fill-opacity="1" fill-rule="nonzero"/></g><g clip-path="url(#5ce60b4a25)"><path fill="#435dbe" d="M 140.765625 164.277344 C 140.941406 164.464844 141.238281 164.777344 141.425781 164.972656 C 141.613281 165.171875 141.785156 165.367188 141.804688 165.417969 C 141.847656 165.519531 141.832031 165.886719 141.765625 166.25 C 141.695312 166.621094 141.679688 166.753906 141.710938 166.753906 C 141.726562 166.753906 141.792969 166.71875 141.859375 166.671875 C 142.4375 166.277344 143.054688 166.222656 143.332031 166.546875 C 143.453125 166.679688 143.496094 166.835938 143.496094 167.113281 C 143.496094 167.472656 143.347656 167.855469 143.039062 168.277344 C 142.953125 168.398438 142.882812 168.515625 142.882812 168.53125 C 142.882812 168.589844 143.019531 168.796875 143.054688 168.796875 C 143.074219 168.796875 143.265625 168.535156 143.472656 168.21875 C 144 167.414062 144.128906 167.277344 144.230469 167.40625 C 144.324219 167.523438 144.511719 168.160156 144.695312 168.957031 C 144.820312 169.503906 144.890625 169.675781 145.011719 169.75 C 145.039062 169.761719 145.191406 169.894531 145.351562 170.039062 C 145.777344 170.421875 145.878906 170.480469 146.074219 170.480469 C 146.167969 170.480469 146.265625 170.503906 146.308594 170.535156 C 146.394531 170.59375 146.386719 170.601562 146.570312 170.328125 C 146.816406 169.960938 147.109375 169.824219 147.390625 169.945312 C 147.484375 169.980469 147.53125 170.027344 147.574219 170.136719 C 147.722656 170.46875 147.6875 170.8125 147.441406 171.375 C 147.101562 172.144531 147.074219 172.25 147.027344 172.9375 C 146.992188 173.410156 146.972656 173.488281 146.71875 174.03125 C 146.660156 174.15625 146.570312 174.390625 146.519531 174.542969 C 146.378906 174.984375 146.214844 175.113281 145.792969 175.117188 C 145.675781 175.117188 145.570312 175.128906 145.558594 175.136719 C 145.550781 175.152344 145.644531 175.359375 145.769531 175.601562 C 146.03125 176.097656 146.273438 176.585938 146.367188 176.804688 C 146.402344 176.886719 146.457031 177.011719 146.492188 177.085938 C 146.523438 177.160156 146.558594 177.21875 146.570312 177.210938 C 146.585938 177.203125 146.609375 177.089844 146.636719 176.960938 C 146.722656 176.464844 146.894531 176.128906 147.261719 175.746094 C 147.5 175.496094 147.554688 175.425781 147.566406 175.316406 C 147.582031 175.210938 147.570312 175.175781 147.5 175.105469 C 147.429688 175.035156 147.386719 175.019531 147.230469 175.019531 C 147.125 175.019531 146.992188 175.035156 146.933594 175.050781 C 146.855469 175.074219 146.820312 175.070312 146.78125 175.035156 C 146.707031 174.957031 146.765625 174.886719 147.03125 174.738281 C 147.6875 174.371094 148.386719 174.539062 148.691406 175.136719 C 148.765625 175.285156 148.78125 175.34375 148.765625 175.46875 C 148.753906 175.554688 148.734375 175.648438 148.726562 175.675781 C 148.707031 175.71875 148.734375 175.746094 148.835938 175.796875 C 148.996094 175.878906 149.03125 175.945312 149.03125 176.148438 C 149.03125 176.375 148.921875 176.566406 148.746094 176.65625 C 148.589844 176.734375 148.585938 176.757812 148.707031 177.144531 C 148.773438 177.347656 148.78125 177.4375 148.78125 178.023438 C 148.777344 178.894531 148.6875 179.429688 148.441406 180.0625 C 148.308594 180.40625 148.136719 180.660156 147.828125 180.957031 L 147.574219 181.207031 L 147.574219 181.6875 C 147.574219 181.953125 147.566406 182.25 147.554688 182.339844 C 147.535156 182.496094 147.539062 182.511719 147.597656 182.511719 C 147.632812 182.511719 147.695312 182.472656 147.742188 182.425781 C 147.914062 182.238281 148.375 181.988281 148.855469 181.832031 C 149.121094 181.738281 149.132812 181.730469 149.160156 181.566406 C 149.199219 181.375 149.15625 181.300781 149.023438 181.332031 C 148.820312 181.375 148.625 181.453125 148.484375 181.546875 C 148.335938 181.644531 148.214844 181.65625 148.199219 181.566406 C 148.183594 181.496094 148.488281 181.050781 148.683594 180.859375 C 148.765625 180.777344 148.921875 180.664062 149.027344 180.613281 C 149.195312 180.527344 149.238281 180.515625 149.535156 180.515625 C 149.90625 180.515625 150.039062 180.570312 150.265625 180.796875 C 150.429688 180.960938 150.515625 181.15625 150.570312 181.503906 C 150.597656 181.652344 150.621094 181.777344 150.628906 181.789062 C 150.636719 181.796875 150.714844 181.851562 150.804688 181.90625 C 150.894531 181.964844 151.023438 182.082031 151.089844 182.171875 C 151.515625 182.730469 151.523438 183.292969 151.109375 183.566406 L 150.960938 183.664062 L 150.972656 184.214844 C 150.992188 185.515625 150.742188 186.304688 150.023438 187.246094 C 149.742188 187.613281 149.640625 187.730469 149.273438 188.113281 C 149.078125 188.316406 148.910156 188.503906 148.894531 188.527344 C 148.878906 188.554688 148.945312 188.628906 149.117188 188.761719 C 149.589844 189.125 149.558594 189.085938 149.558594 189.335938 C 149.554688 189.675781 149.519531 190.296875 149.464844 191.046875 C 149.4375 191.414062 149.425781 191.757812 149.433594 191.800781 C 149.449219 191.859375 149.476562 191.882812 149.535156 191.882812 C 149.578125 191.882812 149.621094 191.867188 149.632812 191.84375 C 149.648438 191.824219 149.664062 191.605469 149.671875 191.355469 C 149.679688 190.902344 149.714844 190.703125 149.824219 190.484375 C 149.859375 190.421875 150.097656 190.164062 150.359375 189.90625 C 150.832031 189.441406 150.949219 189.28125 150.992188 189.054688 C 151.019531 188.902344 150.941406 188.75 150.796875 188.683594 C 150.691406 188.632812 150.679688 188.632812 150.511719 188.703125 C 150.414062 188.742188 150.296875 188.816406 150.242188 188.871094 C 150.144531 188.976562 150.09375 188.988281 150.035156 188.914062 C 150 188.875 150.011719 188.816406 150.085938 188.597656 C 150.238281 188.140625 150.441406 187.714844 150.589844 187.523438 C 150.777344 187.285156 150.992188 187.140625 151.363281 187.011719 C 151.785156 186.871094 152.101562 186.867188 152.375 187.003906 C 152.484375 187.054688 152.632812 187.15625 152.714844 187.226562 C 152.855469 187.351562 153.207031 187.851562 153.367188 188.152344 C 153.410156 188.234375 153.507812 188.398438 153.59375 188.527344 C 153.753906 188.765625 153.730469 188.753906 154.195312 188.898438 C 154.617188 189.035156 154.785156 189.144531 154.894531 189.363281 C 155 189.570312 154.984375 189.742188 154.832031 189.992188 C 154.730469 190.160156 154.707031 190.222656 154.734375 190.269531 C 154.75 190.300781 154.789062 190.324219 154.816406 190.324219 C 154.910156 190.324219 155.078125 190.457031 155.132812 190.566406 C 155.203125 190.71875 155.195312 190.886719 155.101562 191.152344 C 155 191.441406 155 191.519531 155.109375 191.746094 C 155.175781 191.890625 155.191406 191.980469 155.191406 192.15625 C 155.191406 192.425781 155.132812 192.597656 154.921875 192.953125 C 154.605469 193.476562 154.488281 193.875 154.375 194.785156 C 154.289062 195.449219 154.1875 195.996094 154.035156 196.632812 C 153.953125 196.964844 153.925781 197.121094 153.949219 197.144531 C 153.972656 197.167969 154.054688 197.15625 154.203125 197.113281 C 154.511719 197.015625 154.585938 197.003906 154.8125 197.003906 C 155.261719 197.003906 155.472656 197.273438 155.378906 197.730469 C 155.34375 197.894531 155.210938 198.125 154.933594 198.492188 L 154.859375 198.589844 L 154.988281 198.746094 C 155.0625 198.839844 155.132812 198.96875 155.152344 199.066406 C 155.171875 199.15625 155.203125 199.238281 155.21875 199.257812 C 155.257812 199.300781 155.640625 199.105469 155.777344 198.964844 C 155.996094 198.746094 155.992188 198.695312 155.765625 198.636719 C 155.632812 198.601562 155.601562 198.507812 155.695312 198.421875 C 155.796875 198.332031 156.121094 198.230469 156.332031 198.226562 C 156.703125 198.21875 156.984375 198.4375 157.058594 198.796875 C 157.128906 199.113281 157.019531 199.492188 156.722656 199.96875 C 156.539062 200.261719 156.5 200.472656 156.585938 200.679688 C 156.628906 200.78125 156.648438 200.800781 156.742188 200.800781 C 156.871094 200.800781 157.085938 200.703125 157.167969 200.613281 C 157.222656 200.554688 157.222656 200.523438 157.1875 200.285156 C 157.15625 200.074219 157.15625 200.015625 157.191406 199.976562 C 157.289062 199.851562 157.683594 199.964844 157.875 200.171875 C 158.078125 200.382812 158.214844 200.890625 158.175781 201.25 C 158.164062 201.351562 158.121094 201.605469 158.074219 201.820312 C 158.007812 202.117188 157.988281 202.308594 157.988281 202.632812 C 157.984375 203.136719 158.039062 203.3125 158.289062 203.597656 C 158.375 203.699219 158.464844 203.835938 158.484375 203.902344 C 158.507812 203.96875 158.535156 204.039062 158.546875 204.058594 C 158.558594 204.074219 158.613281 204.199219 158.660156 204.332031 C 158.707031 204.464844 158.777344 204.640625 158.808594 204.722656 C 158.886719 204.90625 159.253906 205.878906 159.429688 206.359375 C 159.5 206.554688 159.582031 206.773438 159.609375 206.847656 C 159.675781 207.027344 159.707031 207.0625 159.808594 207.035156 C 159.933594 207.003906 160.210938 206.820312 160.292969 206.714844 C 160.445312 206.523438 160.507812 206.242188 160.421875 206.15625 C 160.398438 206.132812 160.335938 206.117188 160.277344 206.117188 C 160.132812 206.117188 160.070312 206.089844 160.070312 206.015625 C 160.070312 205.925781 160.1875 205.871094 160.464844 205.824219 C 160.757812 205.777344 160.964844 205.800781 161.171875 205.90625 C 161.351562 205.996094 161.410156 206.058594 161.503906 206.261719 C 161.644531 206.585938 161.578125 207.042969 161.351562 207.367188 C 161.289062 207.457031 161.238281 207.539062 161.238281 207.550781 C 161.238281 207.628906 161.351562 207.542969 161.601562 207.289062 C 161.835938 207.050781 161.882812 206.984375 161.882812 206.898438 C 161.882812 206.84375 161.867188 206.773438 161.847656 206.738281 C 161.820312 206.691406 161.824219 206.660156 161.863281 206.59375 C 161.976562 206.429688 162.28125 206.402344 162.503906 206.539062 C 162.632812 206.617188 162.78125 206.832031 162.808594 206.984375 C 162.863281 207.253906 162.730469 207.65625 162.53125 207.839844 C 162.433594 207.929688 162.4375 207.964844 162.535156 207.964844 C 162.636719 207.964844 162.761719 208.039062 162.808594 208.128906 C 162.871094 208.25 162.867188 208.585938 162.804688 208.738281 C 162.773438 208.8125 162.582031 209.027344 162.292969 209.3125 C 161.804688 209.785156 161.59375 210.042969 161.457031 210.316406 C 161.371094 210.480469 161.191406 210.992188 161.15625 211.148438 L 161.140625 211.242188 L 140.648438 211.242188 L 140.652344 211.117188 C 140.65625 211.050781 140.636719 209.523438 140.617188 207.722656 C 140.582031 204.136719 140.53125 198.089844 140.484375 191.445312 C 140.453125 186.917969 140.410156 181.171875 140.355469 174.828125 C 140.335938 172.710938 140.316406 169.472656 140.304688 167.628906 C 140.296875 165.785156 140.277344 164.226562 140.257812 164.175781 C 140.226562 164.035156 140.273438 163.933594 140.367188 163.933594 C 140.421875 163.933594 140.53125 164.027344 140.765625 164.277344 Z M 140.765625 164.277344 " fill-opacity="1" fill-rule="nonzero"/></g><g fill="#435dbe" fill-opacity="1"><g transform="translate(165.224348, 198.027971)"><g><path d="M 2.515625 -20.046875 L 8.765625 -20.046875 C 11.609375 -20.046875 13.671875 -19.640625 14.953125 -18.828125 C 16.234375 -18.023438 16.875 -16.738281 16.875 -14.96875 C 16.875 -13.769531 16.59375 -12.785156 16.03125 -12.015625 C 15.46875 -11.253906 14.722656 -10.796875 13.796875 -10.640625 L 13.796875 -10.5 C 15.066406 -10.21875 15.984375 -9.6875 16.546875 -8.90625 C 17.109375 -8.132812 17.390625 -7.101562 17.390625 -5.8125 C 17.390625 -3.988281 16.726562 -2.5625 15.40625 -1.53125 C 14.082031 -0.507812 12.285156 0 10.015625 0 L 2.515625 0 Z M 6.765625 -12.109375 L 9.234375 -12.109375 C 10.390625 -12.109375 11.222656 -12.285156 11.734375 -12.640625 C 12.253906 -12.992188 12.515625 -13.582031 12.515625 -14.40625 C 12.515625 -15.175781 12.234375 -15.726562 11.671875 -16.0625 C 11.109375 -16.394531 10.21875 -16.5625 9 -16.5625 L 6.765625 -16.5625 Z M 6.765625 -8.734375 L 6.765625 -3.515625 L 9.546875 -3.515625 C 10.710938 -3.515625 11.570312 -3.738281 12.125 -4.1875 C 12.6875 -4.632812 12.96875 -5.316406 12.96875 -6.234375 C 12.96875 -7.898438 11.78125 -8.734375 9.40625 -8.734375 Z M 6.765625 -8.734375 "/></g></g></g><g fill="#435dbe" fill-opacity="1"><g transform="translate(184.085141, 198.027971)"><g><path d="M 2.515625 0 L 2.515625 -20.046875 L 6.765625 -20.046875 L 6.765625 -3.515625 L 14.90625 -3.515625 L 14.90625 0 Z M 2.515625 0 "/></g></g></g><g fill="#435dbe" fill-opacity="1"><g transform="translate(199.944111, 198.027971)"><g><path d="M 2.515625 0 L 2.515625 -20.046875 L 6.765625 -20.046875 L 6.765625 0 Z M 2.515625 0 "/></g></g></g><g fill="#000000" fill-opacity="1"><g transform="translate(209.236249, 198.027971)"><g><path d="M 10.25 0 L 6 0 L 6 -16.5 L 0.5625 -16.5 L 0.5625 -20.046875 L 15.703125 -20.046875 L 15.703125 -16.5 L 10.25 -16.5 Z M 10.25 0 "/></g></g></g><g fill="#000000" fill-opacity="1"><g transform="translate(225.492718, 198.027971)"><g><path d="M 2.515625 0 L 2.515625 -20.046875 L 6.765625 -20.046875 L 6.765625 0 Z M 2.515625 0 "/></g></g></g><g fill="#000000" fill-opacity="1"><g transform="translate(234.786045, 198.027971)"><g><path d="M 18.640625 0 L 13.8125 0 L 8.5625 -8.453125 L 6.765625 -7.15625 L 6.765625 0 L 2.515625 0 L 2.515625 -20.046875 L 6.765625 -20.046875 L 6.765625 -10.875 L 8.453125 -13.234375 L 13.875 -20.046875 L 18.59375 -20.046875 L 11.59375 -11.171875 Z M 18.640625 0 "/></g></g></g><g fill="#000000" fill-opacity="1"><g transform="translate(253.427526, 198.027971)"><g><path d="M 14.0625 0 L 2.515625 0 L 2.515625 -20.046875 L 14.0625 -20.046875 L 14.0625 -16.5625 L 6.765625 -16.5625 L 6.765625 -12.15625 L 13.5625 -12.15625 L 13.5625 -8.671875 L 6.765625 -8.671875 L 6.765625 -3.515625 L 14.0625 -3.515625 Z M 14.0625 0 "/></g></g></g><g fill="#000000" fill-opacity="1"><g transform="translate(269.149427, 198.027971)"><g><path d="M 10.25 0 L 6 0 L 6 -16.5 L 0.5625 -16.5 L 0.5625 -20.046875 L 15.703125 -20.046875 L 15.703125 -16.5 L 10.25 -16.5 Z M 10.25 0 "/></g></g></g></svg>