<svg width="46" height="46" viewBox="0 0 46 46" fill="none" xmlns="http://www.w3.org/2000/svg">
<g filter="url(#filter0_ddd_1678_1817)">
<rect x="3" y="2" width="40" height="40" rx="5" fill="#56CA00"/>
<path d="M22.0001 25.4142V30.0002H24.0001V25.4142C24.0001 24.8882 23.7861 24.3722 23.4141 24.0002L21.4141 22.0002L24.0001 19.4142L26.0001 21.4142C26.3721 21.7862 26.8881 22.0002 27.4141 22.0002H31.0001V20.0002H27.4141L23.7071 16.2932C23.3161 15.9022 22.6841 15.9022 22.2931 16.2932L19.0001 19.5863C18.6221 19.9643 18.4141 20.4662 18.4141 21.0002C18.4141 21.5342 18.6221 22.0362 19.0001 22.4142L22.0001 25.4142Z" fill="white"/>
<path d="M27 17C28.1046 17 29 16.1046 29 15C29 13.8954 28.1046 13 27 13C25.8954 13 25 13.8954 25 15C25 16.1046 25.8954 17 27 17Z" fill="#F5F5F9"/>
<path d="M29 24C26.794 24 25 25.794 25 28C25 30.206 26.794 32 29 32C31.206 32 33 30.206 33 28C33 25.794 31.206 24 29 24ZM29 30C27.897 30 27 29.103 27 28C27 26.897 27.897 26 29 26C30.103 26 31 26.897 31 28C31 29.103 30.103 30 29 30ZM17 32C19.206 32 21 30.206 21 28C21 25.794 19.206 24 17 24C14.794 24 13 25.794 13 28C13 30.206 14.794 32 17 32ZM17 26C18.103 26 19 26.897 19 28C19 29.103 18.103 30 17 30C15.897 30 15 29.103 15 28C15 26.897 15.897 26 17 26Z" fill="#F5F5F9"/>
</g>
<defs>
<filter id="filter0_ddd_1678_1817" x="0" y="0" width="46" height="46" filterUnits="userSpaceOnUse" color-interpolation-filters="sRGB">
<feFlood flood-opacity="0" result="BackgroundImageFix"/>
<feColorMatrix in="SourceAlpha" type="matrix" values="0 0 0 0 0 0 0 0 0 0 0 0 0 0 0 0 0 0 127 0" result="hardAlpha"/>
<feOffset dy="1"/>
<feGaussianBlur stdDeviation="1.5"/>
<feColorMatrix type="matrix" values="0 0 0 0 0.227451 0 0 0 0 0.207843 0 0 0 0 0.254902 0 0 0 0.12 0"/>
<feBlend mode="normal" in2="BackgroundImageFix" result="effect1_dropShadow_1678_1817"/>
<feColorMatrix in="SourceAlpha" type="matrix" values="0 0 0 0 0 0 0 0 0 0 0 0 0 0 0 0 0 0 127 0" result="hardAlpha"/>
<feOffset dy="1"/>
<feGaussianBlur stdDeviation="0.5"/>
<feColorMatrix type="matrix" values="0 0 0 0 0.227451 0 0 0 0 0.207843 0 0 0 0 0.254902 0 0 0 0.14 0"/>
<feBlend mode="normal" in2="effect1_dropShadow_1678_1817" result="effect2_dropShadow_1678_1817"/>
<feColorMatrix in="SourceAlpha" type="matrix" values="0 0 0 0 0 0 0 0 0 0 0 0 0 0 0 0 0 0 127 0" result="hardAlpha"/>
<feMorphology radius="1" operator="erode" in="SourceAlpha" result="effect3_dropShadow_1678_1817"/>
<feOffset dy="2"/>
<feGaussianBlur stdDeviation="0.5"/>
<feColorMatrix type="matrix" values="0 0 0 0 0.227451 0 0 0 0 0.207843 0 0 0 0 0.254902 0 0 0 0.2 0"/>
<feBlend mode="normal" in2="effect2_dropShadow_1678_1817" result="effect3_dropShadow_1678_1817"/>
<feBlend mode="normal" in="SourceGraphic" in2="effect3_dropShadow_1678_1817" result="shape"/>
</filter>
</defs>
</svg>
