<svg width="46" height="46" viewBox="0 0 46 46" fill="none" xmlns="http://www.w3.org/2000/svg">
<g filter="url(#filter0_ddd_1678_1845)">
<rect x="3" y="2" width="40" height="40" rx="5" fill="#9155FD"/>
<path d="M30.003 18.004C31.1087 18.004 32.005 17.1077 32.005 16.002C32.005 14.8963 31.1087 14 30.003 14C28.8973 14 28.001 14.8963 28.001 16.002C28.001 17.1077 28.8973 18.004 30.003 18.004Z" fill="white"/>
<path d="M29.875 23.2182C29.308 23.6712 28.897 23.9992 27.997 23.9992C27.098 23.9992 26.709 23.6882 26.121 23.2182C25.441 22.6752 24.596 21.9992 22.994 21.9992C21.393 21.9992 20.549 22.6752 19.87 23.2182C19.282 23.6882 18.895 23.9992 17.995 23.9992C17.097 23.9992 16.709 23.6882 16.122 23.2192C15.443 22.6752 14.6 21.9992 13 21.9992V23.9992C13.897 23.9992 14.285 24.3102 14.872 24.7792C15.551 25.3232 16.395 25.9992 17.995 25.9992C19.595 25.9992 20.441 25.3232 21.12 24.7792C21.707 24.3092 22.096 23.9992 22.994 23.9992C23.894 23.9992 24.305 24.3272 24.872 24.7802C25.551 25.3232 26.396 25.9992 27.997 25.9992C29.599 25.9992 30.444 25.3232 31.124 24.7802C31.712 24.3102 32.101 23.9992 33 23.9992V21.9992C31.399 21.9992 30.554 22.6752 29.875 23.2182ZM27.997 28.9992C27.098 28.9992 26.709 28.6882 26.121 28.2182C25.441 27.6752 24.596 26.9992 22.994 26.9992C21.393 26.9992 20.549 27.6752 19.87 28.2182C19.282 28.6882 18.895 28.9992 17.995 28.9992C17.097 28.9992 16.709 28.6882 16.122 28.2192C15.443 27.6752 14.6 26.9992 13 26.9992V28.9992C13.897 28.9992 14.285 29.3102 14.872 29.7792C15.551 30.3232 16.395 30.9992 17.995 30.9992C19.595 30.9992 20.441 30.3232 21.12 29.7792C21.707 29.3092 22.096 28.9992 22.994 28.9992C23.894 28.9992 24.305 29.3272 24.872 29.7802C25.551 30.3232 26.396 30.9992 27.997 30.9992C29.599 30.9992 30.444 30.3232 31.124 29.7802C31.712 29.3102 32.101 28.9992 33 28.9992V26.9992C31.399 26.9992 30.554 27.6752 29.875 28.2182C29.308 28.6712 28.897 28.9992 27.997 28.9992ZM22 15.4182L24.104 17.5222L22.047 20.0922C22.333 20.0362 22.643 19.9992 22.994 19.9992C24.596 19.9992 25.441 20.6752 26.121 21.2182C26.709 21.6882 27.098 21.9992 27.997 21.9992C28.897 21.9992 29.308 21.6712 29.875 21.2182C30.007 21.1132 30.149 21.0012 30.298 20.8922L28.202 18.8022L28.207 18.7972L22.707 13.2972C22.316 12.9062 21.684 12.9062 21.293 13.2972L17.293 17.2972L18.707 18.7112L22 15.4182Z" fill="#F5F5F9"/>
</g>
<defs>
<filter id="filter0_ddd_1678_1845" x="0" y="0" width="46" height="46" filterUnits="userSpaceOnUse" color-interpolation-filters="sRGB">
<feFlood flood-opacity="0" result="BackgroundImageFix"/>
<feColorMatrix in="SourceAlpha" type="matrix" values="0 0 0 0 0 0 0 0 0 0 0 0 0 0 0 0 0 0 127 0" result="hardAlpha"/>
<feOffset dy="1"/>
<feGaussianBlur stdDeviation="1.5"/>
<feColorMatrix type="matrix" values="0 0 0 0 0.227451 0 0 0 0 0.207843 0 0 0 0 0.254902 0 0 0 0.12 0"/>
<feBlend mode="normal" in2="BackgroundImageFix" result="effect1_dropShadow_1678_1845"/>
<feColorMatrix in="SourceAlpha" type="matrix" values="0 0 0 0 0 0 0 0 0 0 0 0 0 0 0 0 0 0 127 0" result="hardAlpha"/>
<feOffset dy="1"/>
<feGaussianBlur stdDeviation="0.5"/>
<feColorMatrix type="matrix" values="0 0 0 0 0.227451 0 0 0 0 0.207843 0 0 0 0 0.254902 0 0 0 0.14 0"/>
<feBlend mode="normal" in2="effect1_dropShadow_1678_1845" result="effect2_dropShadow_1678_1845"/>
<feColorMatrix in="SourceAlpha" type="matrix" values="0 0 0 0 0 0 0 0 0 0 0 0 0 0 0 0 0 0 127 0" result="hardAlpha"/>
<feMorphology radius="1" operator="erode" in="SourceAlpha" result="effect3_dropShadow_1678_1845"/>
<feOffset dy="2"/>
<feGaussianBlur stdDeviation="0.5"/>
<feColorMatrix type="matrix" values="0 0 0 0 0.227451 0 0 0 0 0.207843 0 0 0 0 0.254902 0 0 0 0.2 0"/>
<feBlend mode="normal" in2="effect2_dropShadow_1678_1845" result="effect3_dropShadow_1678_1845"/>
<feBlend mode="normal" in="SourceGraphic" in2="effect3_dropShadow_1678_1845" result="shape"/>
</filter>
</defs>
</svg>
