<svg width="46" height="46" viewBox="0 0 46 46" fill="none" xmlns="http://www.w3.org/2000/svg">
<g filter="url(#filter0_ddd_1678_1896)">
<rect x="3" y="2" width="40" height="40" rx="5" fill="#FFB400"/>
<path d="M31.832 14.555C32.036 14.248 32.056 13.854 31.882 13.529C31.708 13.204 31.369 13 31 13H15C14.631 13 14.292 13.203 14.118 13.528C13.944 13.853 13.964 14.248 14.168 14.554L22 26.303V30H19V32H27V30H24V26.303L31.832 14.555ZM23 24.197L19.535 19H26.465L23 24.197ZM29.132 15L27.799 17H18.201L16.868 15H29.132Z" fill="white"/>
</g>
<defs>
<filter id="filter0_ddd_1678_1896" x="0" y="0" width="46" height="46" filterUnits="userSpaceOnUse" color-interpolation-filters="sRGB">
<feFlood flood-opacity="0" result="BackgroundImageFix"/>
<feColorMatrix in="SourceAlpha" type="matrix" values="0 0 0 0 0 0 0 0 0 0 0 0 0 0 0 0 0 0 127 0" result="hardAlpha"/>
<feOffset dy="1"/>
<feGaussianBlur stdDeviation="1.5"/>
<feColorMatrix type="matrix" values="0 0 0 0 0.227451 0 0 0 0 0.207843 0 0 0 0 0.254902 0 0 0 0.12 0"/>
<feBlend mode="normal" in2="BackgroundImageFix" result="effect1_dropShadow_1678_1896"/>
<feColorMatrix in="SourceAlpha" type="matrix" values="0 0 0 0 0 0 0 0 0 0 0 0 0 0 0 0 0 0 127 0" result="hardAlpha"/>
<feOffset dy="1"/>
<feGaussianBlur stdDeviation="0.5"/>
<feColorMatrix type="matrix" values="0 0 0 0 0.227451 0 0 0 0 0.207843 0 0 0 0 0.254902 0 0 0 0.14 0"/>
<feBlend mode="normal" in2="effect1_dropShadow_1678_1896" result="effect2_dropShadow_1678_1896"/>
<feColorMatrix in="SourceAlpha" type="matrix" values="0 0 0 0 0 0 0 0 0 0 0 0 0 0 0 0 0 0 127 0" result="hardAlpha"/>
<feMorphology radius="1" operator="erode" in="SourceAlpha" result="effect3_dropShadow_1678_1896"/>
<feOffset dy="2"/>
<feGaussianBlur stdDeviation="0.5"/>
<feColorMatrix type="matrix" values="0 0 0 0 0.227451 0 0 0 0 0.207843 0 0 0 0 0.254902 0 0 0 0.2 0"/>
<feBlend mode="normal" in2="effect2_dropShadow_1678_1896" result="effect3_dropShadow_1678_1896"/>
<feBlend mode="normal" in="SourceGraphic" in2="effect3_dropShadow_1678_1896" result="shape"/>
</filter>
</defs>
</svg>
