<svg width="46" height="46" viewBox="0 0 46 46" fill="none" xmlns="http://www.w3.org/2000/svg">
<g filter="url(#filter0_ddd_1678_1851)">
<rect x="3" y="2" width="40" height="40" rx="5" fill="#56CA00"/>
<path d="M16.996 19C18.409 19 19.156 18.253 19.701 17.707C20.191 17.217 20.432 17 20.993 17C21.554 17 21.795 17.217 22.285 17.707C22.83 18.253 23.577 19 24.991 19C26.406 19 27.154 18.253 27.701 17.707C28.192 17.217 28.433 17 28.996 17C29.559 17 29.8 17.217 30.291 17.707C30.837 18.253 31.585 19 33 19V17C32.437 17 32.196 16.783 31.705 16.293C31.159 15.747 30.411 15 28.996 15C27.581 15 26.834 15.747 26.287 16.292C25.796 16.783 25.556 17 24.991 17C24.429 17 24.189 16.783 23.699 16.293C23.154 15.747 22.407 15 20.993 15C19.579 15 18.832 15.747 18.287 16.293C17.797 16.783 17.557 17 16.996 17C16.435 17 16.195 16.783 15.705 16.293C15.16 15.747 14.413 15 13 15V17C13.561 17 13.801 17.217 14.291 17.707C14.836 18.253 15.583 19 16.996 19ZM16.996 24C18.409 24 19.156 23.253 19.701 22.707C20.191 22.217 20.432 22 20.993 22C21.554 22 21.795 22.217 22.285 22.707C22.83 23.253 23.577 24 24.991 24C26.406 24 27.154 23.253 27.701 22.707C28.192 22.217 28.433 22 28.996 22C29.559 22 29.8 22.217 30.291 22.707C30.837 23.253 31.585 24 33 24V22C32.437 22 32.196 21.783 31.705 21.293C31.159 20.747 30.411 20 28.996 20C27.581 20 26.834 20.747 26.287 21.292C25.796 21.783 25.556 22 24.991 22C24.429 22 24.189 21.783 23.699 21.293C23.154 20.747 22.407 20 20.993 20C19.579 20 18.832 20.747 18.287 21.293C17.797 21.783 17.557 22 16.996 22C16.435 22 16.195 21.783 15.705 21.293C15.16 20.747 14.413 20 13 20V22C13.561 22 13.801 22.217 14.291 22.707C14.836 23.253 15.583 24 16.996 24ZM16.996 29C18.409 29 19.156 28.253 19.701 27.707C20.191 27.217 20.432 27 20.993 27C21.554 27 21.795 27.217 22.285 27.707C22.83 28.253 23.577 29 24.991 29C26.406 29 27.154 28.253 27.701 27.707C28.192 27.217 28.433 27 28.996 27C29.559 27 29.8 27.217 30.291 27.707C30.837 28.253 31.585 29 33 29V27C32.437 27 32.196 26.783 31.705 26.293C31.159 25.747 30.411 25 28.996 25C27.581 25 26.834 25.747 26.287 26.292C25.796 26.783 25.556 27 24.991 27C24.429 27 24.189 26.783 23.699 26.293C23.154 25.747 22.407 25 20.993 25C19.579 25 18.832 25.747 18.287 26.293C17.797 26.783 17.557 27 16.996 27C16.435 27 16.195 26.783 15.705 26.293C15.16 25.747 14.413 25 13 25V27C13.561 27 13.801 27.217 14.291 27.707C14.836 28.253 15.583 29 16.996 29Z" fill="white"/>
</g>
<defs>
<filter id="filter0_ddd_1678_1851" x="0" y="0" width="46" height="46" filterUnits="userSpaceOnUse" color-interpolation-filters="sRGB">
<feFlood flood-opacity="0" result="BackgroundImageFix"/>
<feColorMatrix in="SourceAlpha" type="matrix" values="0 0 0 0 0 0 0 0 0 0 0 0 0 0 0 0 0 0 127 0" result="hardAlpha"/>
<feOffset dy="1"/>
<feGaussianBlur stdDeviation="1.5"/>
<feColorMatrix type="matrix" values="0 0 0 0 0.227451 0 0 0 0 0.207843 0 0 0 0 0.254902 0 0 0 0.12 0"/>
<feBlend mode="normal" in2="BackgroundImageFix" result="effect1_dropShadow_1678_1851"/>
<feColorMatrix in="SourceAlpha" type="matrix" values="0 0 0 0 0 0 0 0 0 0 0 0 0 0 0 0 0 0 127 0" result="hardAlpha"/>
<feOffset dy="1"/>
<feGaussianBlur stdDeviation="0.5"/>
<feColorMatrix type="matrix" values="0 0 0 0 0.227451 0 0 0 0 0.207843 0 0 0 0 0.254902 0 0 0 0.14 0"/>
<feBlend mode="normal" in2="effect1_dropShadow_1678_1851" result="effect2_dropShadow_1678_1851"/>
<feColorMatrix in="SourceAlpha" type="matrix" values="0 0 0 0 0 0 0 0 0 0 0 0 0 0 0 0 0 0 127 0" result="hardAlpha"/>
<feMorphology radius="1" operator="erode" in="SourceAlpha" result="effect3_dropShadow_1678_1851"/>
<feOffset dy="2"/>
<feGaussianBlur stdDeviation="0.5"/>
<feColorMatrix type="matrix" values="0 0 0 0 0.227451 0 0 0 0 0.207843 0 0 0 0 0.254902 0 0 0 0.2 0"/>
<feBlend mode="normal" in2="effect2_dropShadow_1678_1851" result="effect3_dropShadow_1678_1851"/>
<feBlend mode="normal" in="SourceGraphic" in2="effect3_dropShadow_1678_1851" result="shape"/>
</filter>
</defs>
</svg>
