<svg width="46" height="46" viewBox="0 0 46 46" fill="none" xmlns="http://www.w3.org/2000/svg">
<g filter="url(#filter0_ddd_1678_1902)">
<rect x="3" y="2" width="40" height="40" rx="5" fill="#16B1FF"/>
<path d="M16 32H30C31.103 32 32 31.103 32 30V19C32 18.447 31.553 18 31 18H28V17C28 14.243 25.757 12 23 12C20.243 12 18 14.243 18 17V18H15C14.447 18 14 18.447 14 19V30C14 31.103 14.897 32 16 32ZM20 17C20 15.346 21.346 14 23 14C24.654 14 26 15.346 26 17V18H20V17ZM16 20H18V22H20V20H26V22H28V20H30L30.002 30H16V20Z" fill="white"/>
</g>
<defs>
<filter id="filter0_ddd_1678_1902" x="0" y="0" width="46" height="46" filterUnits="userSpaceOnUse" color-interpolation-filters="sRGB">
<feFlood flood-opacity="0" result="BackgroundImageFix"/>
<feColorMatrix in="SourceAlpha" type="matrix" values="0 0 0 0 0 0 0 0 0 0 0 0 0 0 0 0 0 0 127 0" result="hardAlpha"/>
<feOffset dy="1"/>
<feGaussianBlur stdDeviation="1.5"/>
<feColorMatrix type="matrix" values="0 0 0 0 0.227451 0 0 0 0 0.207843 0 0 0 0 0.254902 0 0 0 0.12 0"/>
<feBlend mode="normal" in2="BackgroundImageFix" result="effect1_dropShadow_1678_1902"/>
<feColorMatrix in="SourceAlpha" type="matrix" values="0 0 0 0 0 0 0 0 0 0 0 0 0 0 0 0 0 0 127 0" result="hardAlpha"/>
<feOffset dy="1"/>
<feGaussianBlur stdDeviation="0.5"/>
<feColorMatrix type="matrix" values="0 0 0 0 0.227451 0 0 0 0 0.207843 0 0 0 0 0.254902 0 0 0 0.14 0"/>
<feBlend mode="normal" in2="effect1_dropShadow_1678_1902" result="effect2_dropShadow_1678_1902"/>
<feColorMatrix in="SourceAlpha" type="matrix" values="0 0 0 0 0 0 0 0 0 0 0 0 0 0 0 0 0 0 127 0" result="hardAlpha"/>
<feMorphology radius="1" operator="erode" in="SourceAlpha" result="effect3_dropShadow_1678_1902"/>
<feOffset dy="2"/>
<feGaussianBlur stdDeviation="0.5"/>
<feColorMatrix type="matrix" values="0 0 0 0 0.227451 0 0 0 0 0.207843 0 0 0 0 0.254902 0 0 0 0.2 0"/>
<feBlend mode="normal" in2="effect2_dropShadow_1678_1902" result="effect3_dropShadow_1678_1902"/>
<feBlend mode="normal" in="SourceGraphic" in2="effect3_dropShadow_1678_1902" result="shape"/>
</filter>
</defs>
</svg>
